<?xml version="1.0" encoding="UTF-8" standalone="no"?>
<!DOCTYPE svg PUBLIC "-//W3C//DTD SVG 1.1//EN"
 "http://www.w3.org/Graphics/SVG/1.1/DTD/svg11.dtd">
<!-- Generated by graphviz version 2.38.0 (20140413.2041)
 -->
<!-- Title: %3 Pages: 1 -->
<svg width="260pt" height="366pt"
 viewBox="0.00 0.00 259.50 366.00" xmlns="http://www.w3.org/2000/svg" xmlns:xlink="http://www.w3.org/1999/xlink">
<g id="graph0" class="graph" transform="scale(1 1) rotate(0) translate(4 362)">
<title>%3</title>
<polygon fill="white" stroke="none" points="-4,4 -4,-362 255.5,-362 255.5,4 -4,4"/>
<!-- 1619811735304 -->
<g id="node1" class="node"><title>1619811735304</title>
<polygon fill="#caff70" stroke="black" points="164,-21 70,-21 70,-0 164,-0 164,-21"/>
<text text-anchor="middle" x="117" y="-7.4" font-family="Times New Roman,serif" font-size="12.00">CopyBackwards</text>
</g>
<!-- 1619811734792 -->
<g id="node2" class="node"><title>1619811734792</title>
<polygon fill="lightgrey" stroke="black" points="167.5,-78 66.5,-78 66.5,-57 167.5,-57 167.5,-78"/>
<text text-anchor="middle" x="117" y="-64.4" font-family="Times New Roman,serif" font-size="12.00">AddmmBackward</text>
</g>
<!-- 1619811734792&#45;&gt;1619811735304 -->
<g id="edge1" class="edge"><title>1619811734792&#45;&gt;1619811735304</title>
<path fill="none" stroke="black" d="M117,-56.9197C117,-49.9083 117,-40.1442 117,-31.4652"/>
<polygon fill="black" stroke="black" points="120.5,-31.3408 117,-21.3408 113.5,-31.3409 120.5,-31.3408"/>
</g>
<!-- 1619811467720 -->
<g id="node3" class="node"><title>1619811467720</title>
<polygon fill="lightblue" stroke="black" points="54,-148 0,-148 0,-114 54,-114 54,-148"/>
<text text-anchor="middle" x="27" y="-134.4" font-family="Times New Roman,serif" font-size="12.00">2.bias</text>
<text text-anchor="middle" x="27" y="-121.4" font-family="Times New Roman,serif" font-size="12.00"> (1)</text>
</g>
<!-- 1619811467720&#45;&gt;1619811734792 -->
<g id="edge2" class="edge"><title>1619811467720&#45;&gt;1619811734792</title>
<path fill="none" stroke="black" d="M50.6464,-113.842C64.1875,-104.589 81.0867,-93.0407 94.4416,-83.9149"/>
<polygon fill="black" stroke="black" points="96.7545,-86.5736 103.036,-78.0419 92.8051,-80.7941 96.7545,-86.5736"/>
</g>
<!-- 1619811736840 -->
<g id="node4" class="node"><title>1619811736840</title>
<polygon fill="lightgrey" stroke="black" points="162,-141.5 72,-141.5 72,-120.5 162,-120.5 162,-141.5"/>
<text text-anchor="middle" x="117" y="-127.9" font-family="Times New Roman,serif" font-size="12.00">ReluBackward0</text>
</g>
<!-- 1619811736840&#45;&gt;1619811734792 -->
<g id="edge3" class="edge"><title>1619811736840&#45;&gt;1619811734792</title>
<path fill="none" stroke="black" d="M117,-120.391C117,-111.866 117,-99.1392 117,-88.4235"/>
<polygon fill="black" stroke="black" points="120.5,-88.2448 117,-78.2449 113.5,-88.2449 120.5,-88.2448"/>
</g>
<!-- 1619811737224 -->
<g id="node5" class="node"><title>1619811737224</title>
<polygon fill="lightgrey" stroke="black" points="167.5,-211.5 66.5,-211.5 66.5,-190.5 167.5,-190.5 167.5,-211.5"/>
<text text-anchor="middle" x="117" y="-197.9" font-family="Times New Roman,serif" font-size="12.00">AddmmBackward</text>
</g>
<!-- 1619811737224&#45;&gt;1619811736840 -->
<g id="edge4" class="edge"><title>1619811737224&#45;&gt;1619811736840</title>
<path fill="none" stroke="black" d="M117,-190.257C117,-180.259 117,-164.422 117,-151.782"/>
<polygon fill="black" stroke="black" points="120.5,-151.725 117,-141.725 113.5,-151.725 120.5,-151.725"/>
</g>
<!-- 1619811467912 -->
<g id="node6" class="node"><title>1619811467912</title>
<polygon fill="lightblue" stroke="black" points="104,-288 50,-288 50,-254 104,-254 104,-288"/>
<text text-anchor="middle" x="77" y="-274.4" font-family="Times New Roman,serif" font-size="12.00">0.bias</text>
<text text-anchor="middle" x="77" y="-261.4" font-family="Times New Roman,serif" font-size="12.00"> (200)</text>
</g>
<!-- 1619811467912&#45;&gt;1619811737224 -->
<g id="edge5" class="edge"><title>1619811467912&#45;&gt;1619811737224</title>
<path fill="none" stroke="black" d="M86.4794,-253.885C92.3518,-243.902 99.9159,-231.043 106.045,-220.624"/>
<polygon fill="black" stroke="black" points="109.126,-222.289 111.18,-211.895 103.093,-218.739 109.126,-222.289"/>
</g>
<!-- 1619811737416 -->
<g id="node7" class="node"><title>1619811737416</title>
<polygon fill="lightgrey" stroke="black" points="193.5,-281.5 122.5,-281.5 122.5,-260.5 193.5,-260.5 193.5,-281.5"/>
<text text-anchor="middle" x="158" y="-267.9" font-family="Times New Roman,serif" font-size="12.00">TBackward</text>
</g>
<!-- 1619811737416&#45;&gt;1619811737224 -->
<g id="edge6" class="edge"><title>1619811737416&#45;&gt;1619811737224</title>
<path fill="none" stroke="black" d="M152.126,-260.257C145.915,-249.956 135.967,-233.457 128.24,-220.642"/>
<polygon fill="black" stroke="black" points="131.024,-218.481 122.863,-211.725 125.03,-222.096 131.024,-218.481"/>
</g>
<!-- 1619811468296 -->
<g id="node8" class="node"><title>1619811468296</title>
<polygon fill="lightblue" stroke="black" points="186.5,-358 129.5,-358 129.5,-324 186.5,-324 186.5,-358"/>
<text text-anchor="middle" x="158" y="-344.4" font-family="Times New Roman,serif" font-size="12.00">0.weight</text>
<text text-anchor="middle" x="158" y="-331.4" font-family="Times New Roman,serif" font-size="12.00"> (200, 1)</text>
</g>
<!-- 1619811468296&#45;&gt;1619811737416 -->
<g id="edge7" class="edge"><title>1619811468296&#45;&gt;1619811737416</title>
<path fill="none" stroke="black" d="M158,-323.885C158,-314.309 158,-302.088 158,-291.912"/>
<polygon fill="black" stroke="black" points="161.5,-291.895 158,-281.895 154.5,-291.895 161.5,-291.895"/>
</g>
<!-- 1619811737096 -->
<g id="node9" class="node"><title>1619811737096</title>
<polygon fill="lightgrey" stroke="black" points="251.5,-141.5 180.5,-141.5 180.5,-120.5 251.5,-120.5 251.5,-141.5"/>
<text text-anchor="middle" x="216" y="-127.9" font-family="Times New Roman,serif" font-size="12.00">TBackward</text>
</g>
<!-- 1619811737096&#45;&gt;1619811734792 -->
<g id="edge8" class="edge"><title>1619811737096&#45;&gt;1619811734792</title>
<path fill="none" stroke="black" d="M200.531,-120.391C184.548,-110.462 159.39,-94.833 140.857,-83.3201"/>
<polygon fill="black" stroke="black" points="142.701,-80.3457 132.36,-78.0419 139.008,-86.2918 142.701,-80.3457"/>
</g>
<!-- 1619811467848 -->
<g id="node10" class="node"><title>1619811467848</title>
<polygon fill="lightblue" stroke="black" points="244.5,-218 187.5,-218 187.5,-184 244.5,-184 244.5,-218"/>
<text text-anchor="middle" x="216" y="-204.4" font-family="Times New Roman,serif" font-size="12.00">2.weight</text>
<text text-anchor="middle" x="216" y="-191.4" font-family="Times New Roman,serif" font-size="12.00"> (1, 200)</text>
</g>
<!-- 1619811467848&#45;&gt;1619811737096 -->
<g id="edge9" class="edge"><title>1619811467848&#45;&gt;1619811737096</title>
<path fill="none" stroke="black" d="M216,-183.885C216,-174.309 216,-162.088 216,-151.912"/>
<polygon fill="black" stroke="black" points="219.5,-151.895 216,-141.895 212.5,-151.895 219.5,-151.895"/>
</g>
</g>
</svg>
